<?xml version='1.0' encoding='utf-8'?>
<svg xmlns="http://www.w3.org/2000/svg" enable-background="new 0 0 500 500" version="1.1" viewBox="0 0 500 500"> <circle cx="250" cy="250" r="250" fill="#FFDD67"/> <path d="m325.7 260.9c-6.3-9.5-14.2-16.4-23.6-20.7s-21.2-8-35.3-11.1c-0.6-0.1-1.1-0.2-1.7-0.3s-1.1-0.2-1.7-0.3c-0.1 0-0.2 0-0.3-0.1s-0.2-0.1-0.3-0.1c-9.4-2-16.7-4-22.1-5.8-5.4-1.9-9.9-4.9-13.5-9s-5.4-9.8-5.4-17v-0.2c0-8.4 3.3-14.8 9.9-19.5 6.6-4.6 15.8-6.9 27.6-6.9 8.4 0 17 1.8 26 5.3s17.6 8.5 26 15.1l19.4-38.8c-7.1-5.3-14.7-9.9-22.6-13.7-8-3.8-16.1-6.7-24.4-8.7-2.1-0.5-4.2-0.9-6.3-1.3v-28.8h-45.8v30c-6.1 1.4-11.8 3.4-17 5.8-12.4 5.8-21.8 14.3-28.3 25.5-6.5 11.1-9.8 24.6-9.8 40.3v0.2c0 17.8 3.5 31.5 10.4 41.2 7 9.6 15.3 16.3 25.1 20 9.7 3.7 22.5 7 38.2 9.9 0.3 0 0.7 0 1.1 0.1s0.8 0.1 1.1 0.3c0.2 0.1 0.5 0.2 0.8 0.2s0.5 0.1 0.8 0.2c7.8 1.4 14.2 3.1 19.2 4.8 5 1.8 9.1 4.6 12.3 8.4s4.8 8.9 4.8 15.4v0.2c0 9.2-3.5 16.4-10.6 21.5s-17 7.6-29.8 7.6c-11.8 0-23.2-2.1-34.2-6.3s-20.7-10.1-29.3-17.8l-21.2 37.8c3.9 5.1 10.4 10 19.5 14.6s19.5 8.4 31.2 11.2c5.4 1.3 10.7 2.3 16 3v27.9h45.8v-29.8c6.7-1.4 12.9-3.4 18.6-6 12.9-5.8 22.7-14.2 29.4-25.2s10.1-24.3 10.1-39.8v-0.3c-0.5-16.4-3.7-29.4-10.1-39z" fill="#664E27"/> </svg>